<svg viewBox="0 0 220 160" fill="none" xmlns="http://www.w3.org/2000/svg">
  <style>
    @import url('https://fonts.googleapis.com/css2?family=Plus+Jakarta+Sans:wght@600;800&amp;display=swap');
    .wm-silver {
      font-family: 'Plus Jakarta Sans', -apple-system, BlinkMacSystemFont, 'Segoe UI', Roboto, sans-serif;
      font-weight: 600;
      font-size: 26px;
      letter-spacing: -0.5px;
      fill: #000000;
    }
    .wm-care {
      font-family: 'Plus Jakarta Sans', -apple-system, BlinkMacSystemFont, 'Segoe UI', Roboto, sans-serif;
      font-weight: 800;
      font-size: 26px;
      letter-spacing: -0.5px;
      fill: #000000;
    }
  </style>
  
  <!-- Centered Symbol (scaled to 72x72 at x=74, y=14) -->
  <g transform="translate(74, 14) scale(0.72)">
    <circle cx="36" cy="17" r="7.5" fill="#000000" />
    <path d="M 36 28 C 24 28, 16 41, 16 57 C 16 73, 30 85, 48 90 C 44 82, 34 73, 34 59 C 34 45, 41 37, 49 33 C 45 29, 40 28, 36 28 Z" fill="#000000" />
    <circle cx="64" cy="21" r="6.5" fill="#000000" />
    <path d="M 64 31 C 56 31, 49 38, 49 48 C 48 59, 54 70, 52 90 C 68 84, 84 71, 84 54 C 84 40, 74 31, 64 31 Z" fill="#000000" />
  </g>
  <!-- Wordmark Centered -->
  <text x="110" y="118" text-anchor="middle">
    <tspan class="wm-silver">Silver</tspan><tspan class="wm-care">Care</tspan>
  </text>
  
        <text x="110" y="142" text-anchor="middle" font-family="'Plus Jakarta Sans', -apple-system, BlinkMacSystemFont, sans-serif" 
              font-size="8.5" font-weight="600" letter-spacing="1.4" fill="#000000" text-transform="uppercase">
          ELDERCARE &amp; CAREGIVER PLATFORM
        </text>
</svg>